{
  "asset": {
    "generator": "glTF-Transform v4.5.0",
    "version": "2.0"
  },
  "accessors": [
    {
      "type": "VEC3",
      "componentType": 5126,
      "count": 91,
      "max": [
        0.16718553006649017,
        0.8729820251464844,
        0.15952657163143158
      ],
      "min": [
        -0.16718555986881256,
        0,
        -0.1697646528482437
      ],
      "normalized": false,
      "byteOffset": 0,
      "bufferView": 0
    },
    {
      "type": "VEC2",
      "componentType": 5126,
      "count": 91,
      "normalized": false,
      "byteOffset": 0,
      "bufferView": 1
    },
    {
      "type": "VEC3",
      "componentType": 5126,
      "count": 91,
      "normalized": false,
      "byteOffset": 0,
      "bufferView": 2
    },
    {
      "type": "SCALAR",
      "componentType": 5123,
      "count": 198,
      "normalized": false,
      "byteOffset": 0,
      "bufferView": 3
    }
  ],
  "bufferViews": [
    {
      "buffer": 1,
      "byteOffset": 0,
      "byteLength": 1092,
      "target": 34962,
      "byteStride": 12,
      "extensions": {
        "EXT_meshopt_compression": {
          "buffer": 0,
          "byteOffset": 0,
          "byteLength": 561,
          "mode": "ATTRIBUTES",
          "byteStride": 12,
          "count": 91
        }
      }
    },
    {
      "buffer": 1,
      "byteOffset": 1092,
      "byteLength": 728,
      "target": 34962,
      "byteStride": 8,
      "extensions": {
        "EXT_meshopt_compression": {
          "buffer": 0,
          "byteOffset": 564,
          "byteLength": 446,
          "mode": "ATTRIBUTES",
          "byteStride": 8,
          "count": 91
        }
      }
    },
    {
      "buffer": 1,
      "byteOffset": 1820,
      "byteLength": 1092,
      "target": 34962,
      "byteStride": 12,
      "extensions": {
        "EXT_meshopt_compression": {
          "buffer": 0,
          "byteOffset": 1012,
          "byteLength": 908,
          "mode": "ATTRIBUTES",
          "byteStride": 12,
          "count": 91
        }
      }
    },
    {
      "buffer": 1,
      "byteOffset": 2912,
      "byteLength": 396,
      "target": 34963,
      "extensions": {
        "EXT_meshopt_compression": {
          "buffer": 0,
          "byteOffset": 1920,
          "byteLength": 224,
          "mode": "TRIANGLES",
          "byteStride": 2,
          "count": 198
        }
      }
    }
  ],
  "samplers": [
    {
      "magFilter": 9729,
      "minFilter": 9987,
      "wrapS": 10497,
      "wrapT": 10497
    }
  ],
  "textures": [
    {
      "source": 0,
      "sampler": 0
    }
  ],
  "images": [
    {
      "name": "dungeon_texture",
      "mimeType": "image/png",
      "uri": "dungeon_texture.png"
    }
  ],
  "buffers": [
    {
      "uri": "candle.bin",
      "byteLength": 2144
    },
    {
      "byteLength": 3308,
      "extensions": {
        "EXT_meshopt_compression": {
          "fallback": true
        }
      }
    }
  ],
  "materials": [
    {
      "name": "texture",
      "pbrMetallicRoughness": {
        "roughnessFactor": 0.44999998807907104,
        "metallicFactor": 0,
        "baseColorTexture": {
          "index": 0
        }
      }
    }
  ],
  "meshes": [
    {
      "name": "candle",
      "primitives": [
        {
          "attributes": {
            "POSITION": 0,
            "TEXCOORD_0": 1,
            "NORMAL": 2
          },
          "mode": 4,
          "material": 0,
          "indices": 3
        }
      ]
    }
  ],
  "nodes": [
    {
      "name": "candle",
      "mesh": 0
    }
  ],
  "scenes": [
    {
      "name": "Scene",
      "nodes": [
        0
      ]
    }
  ],
  "scene": 0,
  "extensionsUsed": [
    "EXT_meshopt_compression"
  ],
  "extensionsRequired": [
    "EXT_meshopt_compression"
  ]
}