{
  "asset": {
    "generator": "glTF-Transform v4.5.0",
    "version": "2.0"
  },
  "accessors": [
    {
      "type": "VEC3",
      "componentType": 5126,
      "count": 654,
      "max": [
        0.8500000238418579,
        0.800000011920929,
        1.3106862306594849
      ],
      "min": [
        -0.8500000238418579,
        -0.1650022566318512,
        -0.1351175606250763
      ],
      "normalized": false,
      "byteOffset": 0,
      "bufferView": 0
    },
    {
      "type": "VEC2",
      "componentType": 5126,
      "count": 654,
      "normalized": false,
      "byteOffset": 0,
      "bufferView": 1
    },
    {
      "type": "VEC3",
      "componentType": 5126,
      "count": 654,
      "normalized": false,
      "byteOffset": 0,
      "bufferView": 2
    },
    {
      "type": "SCALAR",
      "componentType": 5123,
      "count": 1386,
      "normalized": false,
      "byteOffset": 0,
      "bufferView": 3
    },
    {
      "type": "VEC3",
      "componentType": 5126,
      "count": 1571,
      "max": [
        0.800000011920929,
        1.0406723022460938,
        0.6458025574684143
      ],
      "min": [
        -0.800000011920929,
        -2.384185791015625e-7,
        -0.6000003814697266
      ],
      "normalized": false,
      "byteOffset": 0,
      "bufferView": 4
    },
    {
      "type": "VEC2",
      "componentType": 5126,
      "count": 1571,
      "normalized": false,
      "byteOffset": 0,
      "bufferView": 5
    },
    {
      "type": "VEC3",
      "componentType": 5126,
      "count": 1571,
      "normalized": false,
      "byteOffset": 0,
      "bufferView": 6
    },
    {
      "type": "SCALAR",
      "componentType": 5123,
      "count": 3318,
      "normalized": false,
      "byteOffset": 2772,
      "bufferView": 3
    }
  ],
  "bufferViews": [
    {
      "buffer": 1,
      "byteOffset": 0,
      "byteLength": 7848,
      "target": 34962,
      "byteStride": 12,
      "extensions": {
        "EXT_meshopt_compression": {
          "buffer": 0,
          "byteOffset": 0,
          "byteLength": 3458,
          "mode": "ATTRIBUTES",
          "byteStride": 12,
          "count": 654
        }
      }
    },
    {
      "buffer": 1,
      "byteOffset": 7848,
      "byteLength": 5232,
      "target": 34962,
      "byteStride": 8,
      "extensions": {
        "EXT_meshopt_compression": {
          "buffer": 0,
          "byteOffset": 3460,
          "byteLength": 3217,
          "mode": "ATTRIBUTES",
          "byteStride": 8,
          "count": 654
        }
      }
    },
    {
      "buffer": 1,
      "byteOffset": 13080,
      "byteLength": 7848,
      "target": 34962,
      "byteStride": 12,
      "extensions": {
        "EXT_meshopt_compression": {
          "buffer": 0,
          "byteOffset": 6680,
          "byteLength": 7107,
          "mode": "ATTRIBUTES",
          "byteStride": 12,
          "count": 654
        }
      }
    },
    {
      "buffer": 1,
      "byteOffset": 20928,
      "byteLength": 9408,
      "target": 34963,
      "extensions": {
        "EXT_meshopt_compression": {
          "buffer": 0,
          "byteOffset": 13788,
          "byteLength": 5792,
          "mode": "TRIANGLES",
          "byteStride": 2,
          "count": 4704
        }
      }
    },
    {
      "buffer": 1,
      "byteOffset": 30336,
      "byteLength": 18852,
      "target": 34962,
      "byteStride": 12,
      "extensions": {
        "EXT_meshopt_compression": {
          "buffer": 0,
          "byteOffset": 19580,
          "byteLength": 8730,
          "mode": "ATTRIBUTES",
          "byteStride": 12,
          "count": 1571
        }
      }
    },
    {
      "buffer": 1,
      "byteOffset": 49188,
      "byteLength": 12568,
      "target": 34962,
      "byteStride": 8,
      "extensions": {
        "EXT_meshopt_compression": {
          "buffer": 0,
          "byteOffset": 28312,
          "byteLength": 7578,
          "mode": "ATTRIBUTES",
          "byteStride": 8,
          "count": 1571
        }
      }
    },
    {
      "buffer": 1,
      "byteOffset": 61756,
      "byteLength": 18852,
      "target": 34962,
      "byteStride": 12,
      "extensions": {
        "EXT_meshopt_compression": {
          "buffer": 0,
          "byteOffset": 35892,
          "byteLength": 14295,
          "mode": "ATTRIBUTES",
          "byteStride": 12,
          "count": 1571
        }
      }
    }
  ],
  "samplers": [
    {
      "magFilter": 9729,
      "minFilter": 9987,
      "wrapS": 10497,
      "wrapT": 10497
    }
  ],
  "textures": [
    {
      "source": 0,
      "sampler": 0
    }
  ],
  "images": [
    {
      "name": "dungeon_texture",
      "mimeType": "image/png",
      "uri": "dungeon_texture.png"
    }
  ],
  "buffers": [
    {
      "uri": "chest_gold.bin",
      "byteLength": 50188
    },
    {
      "byteLength": 80608,
      "extensions": {
        "EXT_meshopt_compression": {
          "fallback": true
        }
      }
    }
  ],
  "materials": [
    {
      "name": "texture",
      "pbrMetallicRoughness": {
        "roughnessFactor": 0.44999998807907104,
        "metallicFactor": 0,
        "baseColorTexture": {
          "index": 0
        }
      }
    }
  ],
  "meshes": [
    {
      "name": "chest_gold_lid",
      "primitives": [
        {
          "attributes": {
            "POSITION": 0,
            "TEXCOORD_0": 1,
            "NORMAL": 2
          },
          "mode": 4,
          "material": 0,
          "indices": 3
        }
      ]
    },
    {
      "name": "chest_gold",
      "primitives": [
        {
          "attributes": {
            "POSITION": 4,
            "TEXCOORD_0": 5,
            "NORMAL": 6
          },
          "mode": 4,
          "material": 0,
          "indices": 7
        }
      ]
    }
  ],
  "nodes": [
    {
      "name": "chest_gold_lid",
      "translation": [
        0,
        0.5,
        -0.5648832321166992
      ],
      "mesh": 0
    },
    {
      "name": "chest_gold",
      "mesh": 1,
      "children": [
        0
      ]
    }
  ],
  "scenes": [
    {
      "name": "Scene",
      "nodes": [
        1
      ]
    }
  ],
  "scene": 0,
  "extensionsUsed": [
    "EXT_meshopt_compression"
  ],
  "extensionsRequired": [
    "EXT_meshopt_compression"
  ]
}