{
  "asset": {
    "generator": "glTF-Transform v4.5.0",
    "version": "2.0"
  },
  "accessors": [
    {
      "type": "VEC3",
      "componentType": 5126,
      "count": 572,
      "max": [
        0.5138642191886902,
        0.4782329797744751,
        0.43551626801490784
      ],
      "min": [
        -0.4452475607395172,
        -5.960464477539062e-7,
        -0.4608292579650879
      ],
      "normalized": false,
      "byteOffset": 0,
      "bufferView": 0
    },
    {
      "type": "VEC2",
      "componentType": 5126,
      "count": 572,
      "normalized": false,
      "byteOffset": 0,
      "bufferView": 1
    },
    {
      "type": "VEC3",
      "componentType": 5126,
      "count": 572,
      "normalized": false,
      "byteOffset": 0,
      "bufferView": 2
    },
    {
      "type": "SCALAR",
      "componentType": 5123,
      "count": 1248,
      "normalized": false,
      "byteOffset": 0,
      "bufferView": 3
    }
  ],
  "bufferViews": [
    {
      "buffer": 1,
      "byteOffset": 0,
      "byteLength": 6864,
      "target": 34962,
      "byteStride": 12,
      "extensions": {
        "EXT_meshopt_compression": {
          "buffer": 0,
          "byteOffset": 0,
          "byteLength": 3431,
          "mode": "ATTRIBUTES",
          "byteStride": 12,
          "count": 572
        }
      }
    },
    {
      "buffer": 1,
      "byteOffset": 6864,
      "byteLength": 4576,
      "target": 34962,
      "byteStride": 8,
      "extensions": {
        "EXT_meshopt_compression": {
          "buffer": 0,
          "byteOffset": 3432,
          "byteLength": 2741,
          "mode": "ATTRIBUTES",
          "byteStride": 8,
          "count": 572
        }
      }
    },
    {
      "buffer": 1,
      "byteOffset": 11440,
      "byteLength": 6864,
      "target": 34962,
      "byteStride": 12,
      "extensions": {
        "EXT_meshopt_compression": {
          "buffer": 0,
          "byteOffset": 6176,
          "byteLength": 5681,
          "mode": "ATTRIBUTES",
          "byteStride": 12,
          "count": 572
        }
      }
    },
    {
      "buffer": 1,
      "byteOffset": 18304,
      "byteLength": 2496,
      "target": 34963,
      "extensions": {
        "EXT_meshopt_compression": {
          "buffer": 0,
          "byteOffset": 11860,
          "byteLength": 1361,
          "mode": "TRIANGLES",
          "byteStride": 2,
          "count": 1248
        }
      }
    }
  ],
  "samplers": [
    {
      "magFilter": 9729,
      "minFilter": 9987,
      "wrapS": 10497,
      "wrapT": 10497
    }
  ],
  "textures": [
    {
      "source": 0,
      "sampler": 0
    }
  ],
  "images": [
    {
      "name": "dungeon_texture",
      "mimeType": "image/png",
      "uri": "dungeon_texture.png"
    }
  ],
  "buffers": [
    {
      "uri": "coin_stack_small.bin",
      "byteLength": 13224
    },
    {
      "byteLength": 20800,
      "extensions": {
        "EXT_meshopt_compression": {
          "fallback": true
        }
      }
    }
  ],
  "materials": [
    {
      "name": "texture",
      "pbrMetallicRoughness": {
        "roughnessFactor": 0.44999998807907104,
        "metallicFactor": 0,
        "baseColorTexture": {
          "index": 0
        }
      }
    }
  ],
  "meshes": [
    {
      "name": "coin_stack_small",
      "primitives": [
        {
          "attributes": {
            "POSITION": 0,
            "TEXCOORD_0": 1,
            "NORMAL": 2
          },
          "mode": 4,
          "material": 0,
          "indices": 3
        }
      ]
    }
  ],
  "nodes": [
    {
      "name": "coin_stack_small",
      "mesh": 0
    }
  ],
  "scenes": [
    {
      "name": "Scene",
      "nodes": [
        0
      ]
    }
  ],
  "scene": 0,
  "extensionsUsed": [
    "EXT_meshopt_compression"
  ],
  "extensionsRequired": [
    "EXT_meshopt_compression"
  ]
}