{
  "asset": {
    "generator": "glTF-Transform v4.5.0",
    "version": "2.0"
  },
  "accessors": [
    {
      "type": "VEC3",
      "componentType": 5126,
      "count": 252,
      "max": [
        1.100000023841858,
        2,
        1.1000006198883057
      ],
      "min": [
        -1.100000023841858,
        0,
        -1.0999993085861206
      ],
      "normalized": false,
      "byteOffset": 0,
      "bufferView": 0
    },
    {
      "type": "VEC2",
      "componentType": 5126,
      "count": 252,
      "normalized": false,
      "byteOffset": 0,
      "bufferView": 1
    },
    {
      "type": "VEC3",
      "componentType": 5126,
      "count": 252,
      "normalized": false,
      "byteOffset": 0,
      "bufferView": 2
    },
    {
      "type": "SCALAR",
      "componentType": 5123,
      "count": 324,
      "normalized": false,
      "byteOffset": 0,
      "bufferView": 3
    },
    {
      "type": "VEC3",
      "componentType": 5126,
      "count": 914,
      "max": [
        2,
        0.10000419616699219,
        2
      ],
      "min": [
        -2,
        -0.10000000894069672,
        -2
      ],
      "normalized": false,
      "byteOffset": 0,
      "bufferView": 4
    },
    {
      "type": "VEC2",
      "componentType": 5126,
      "count": 914,
      "normalized": false,
      "byteOffset": 0,
      "bufferView": 5
    },
    {
      "type": "VEC3",
      "componentType": 5126,
      "count": 914,
      "normalized": false,
      "byteOffset": 0,
      "bufferView": 6
    },
    {
      "type": "SCALAR",
      "componentType": 5123,
      "count": 1590,
      "normalized": false,
      "byteOffset": 648,
      "bufferView": 3
    }
  ],
  "bufferViews": [
    {
      "buffer": 1,
      "byteOffset": 0,
      "byteLength": 3024,
      "target": 34962,
      "byteStride": 12,
      "extensions": {
        "EXT_meshopt_compression": {
          "buffer": 0,
          "byteOffset": 0,
          "byteLength": 1377,
          "mode": "ATTRIBUTES",
          "byteStride": 12,
          "count": 252
        }
      }
    },
    {
      "buffer": 1,
      "byteOffset": 3024,
      "byteLength": 2016,
      "target": 34962,
      "byteStride": 8,
      "extensions": {
        "EXT_meshopt_compression": {
          "buffer": 0,
          "byteOffset": 1380,
          "byteLength": 1169,
          "mode": "ATTRIBUTES",
          "byteStride": 8,
          "count": 252
        }
      }
    },
    {
      "buffer": 1,
      "byteOffset": 5040,
      "byteLength": 3024,
      "target": 34962,
      "byteStride": 12,
      "extensions": {
        "EXT_meshopt_compression": {
          "buffer": 0,
          "byteOffset": 2552,
          "byteLength": 2606,
          "mode": "ATTRIBUTES",
          "byteStride": 12,
          "count": 252
        }
      }
    },
    {
      "buffer": 1,
      "byteOffset": 8064,
      "byteLength": 3828,
      "target": 34963,
      "extensions": {
        "EXT_meshopt_compression": {
          "buffer": 0,
          "byteOffset": 5160,
          "byteLength": 2258,
          "mode": "TRIANGLES",
          "byteStride": 2,
          "count": 1914
        }
      }
    },
    {
      "buffer": 1,
      "byteOffset": 11892,
      "byteLength": 10968,
      "target": 34962,
      "byteStride": 12,
      "extensions": {
        "EXT_meshopt_compression": {
          "buffer": 0,
          "byteOffset": 7420,
          "byteLength": 4360,
          "mode": "ATTRIBUTES",
          "byteStride": 12,
          "count": 914
        }
      }
    },
    {
      "buffer": 1,
      "byteOffset": 22860,
      "byteLength": 7312,
      "target": 34962,
      "byteStride": 8,
      "extensions": {
        "EXT_meshopt_compression": {
          "buffer": 0,
          "byteOffset": 11780,
          "byteLength": 3653,
          "mode": "ATTRIBUTES",
          "byteStride": 8,
          "count": 914
        }
      }
    },
    {
      "buffer": 1,
      "byteOffset": 30172,
      "byteLength": 10968,
      "target": 34962,
      "byteStride": 12,
      "extensions": {
        "EXT_meshopt_compression": {
          "buffer": 0,
          "byteOffset": 15436,
          "byteLength": 9885,
          "mode": "ATTRIBUTES",
          "byteStride": 12,
          "count": 914
        }
      }
    }
  ],
  "samplers": [
    {
      "magFilter": 9729,
      "minFilter": 9987,
      "wrapS": 10497,
      "wrapT": 10497
    }
  ],
  "textures": [
    {
      "source": 0,
      "sampler": 0
    }
  ],
  "images": [
    {
      "name": "dungeon_texture",
      "mimeType": "image/png",
      "uri": "dungeon_texture.png"
    }
  ],
  "buffers": [
    {
      "uri": "floor_tile_big_spikes.bin",
      "byteLength": 25324
    },
    {
      "byteLength": 41140,
      "extensions": {
        "EXT_meshopt_compression": {
          "fallback": true
        }
      }
    }
  ],
  "materials": [
    {
      "name": "texture",
      "pbrMetallicRoughness": {
        "roughnessFactor": 0.44999998807907104,
        "metallicFactor": 0,
        "baseColorTexture": {
          "index": 0
        }
      }
    }
  ],
  "meshes": [
    {
      "name": "spikes",
      "primitives": [
        {
          "attributes": {
            "POSITION": 0,
            "TEXCOORD_0": 1,
            "NORMAL": 2
          },
          "mode": 4,
          "material": 0,
          "indices": 3
        }
      ]
    },
    {
      "name": "floor_tile_big_spikes",
      "primitives": [
        {
          "attributes": {
            "POSITION": 4,
            "TEXCOORD_0": 5,
            "NORMAL": 6
          },
          "mode": 4,
          "material": 0,
          "indices": 7
        }
      ]
    }
  ],
  "nodes": [
    {
      "name": "spikes",
      "mesh": 0
    },
    {
      "name": "floor_tile_big_spikes",
      "mesh": 1,
      "children": [
        0
      ]
    }
  ],
  "scenes": [
    {
      "name": "Scene",
      "nodes": [
        1
      ]
    }
  ],
  "scene": 0,
  "extensionsUsed": [
    "EXT_meshopt_compression"
  ],
  "extensionsRequired": [
    "EXT_meshopt_compression"
  ]
}